<svg width="66" height="53" viewBox="0 0 66 53" fill="none" xmlns="http://www.w3.org/2000/svg">
<path d="M21.7395 10.1108C19.0767 24.3712 30.4427 20.7818 31.0044 24.223V28.572C30.4428 32.0134 19.0768 28.424 21.7395 42.6844H33.0012H44.2634C46.9258 28.4241 35.5595 32.0134 34.9985 28.572V24.223C35.5595 20.7817 46.9257 24.3712 44.2634 10.1108H33.0012H21.7395Z" fill="#252525"/>
<path d="M34.9981 26.1052V24.223C35.5591 20.7817 46.9253 24.3712 44.263 10.1108H41.9665C41.9665 10.1108 46.6696 19.8224 36.9237 21.8693C34.3047 22.4195 34.5773 23.9067 34.5793 26.1052V26.2006C34.5739 28.3779 34.3206 29.8893 36.9237 30.4357C46.6694 32.4826 41.9665 42.6842 41.9665 42.6842H44.263C46.9254 28.4239 35.5591 31.5234 34.9981 28.0821V26.2007V26.1052Z" fill="#252525"/>
<path d="M15.3984 8.91382H50.6044V10.1112H47.8707V42.6844H50.6044V43.8817H15.3984V42.6844H18.1322V10.1111H15.3984V8.91382ZM46.5381 10.1111H19.4643V42.6843H46.5381V10.1111Z" fill="#FEFEFE"/>
<path d="M23.3242 15.5776C23.314 21.6095 29.3715 20.4064 32.2249 23.0529C32.7429 23.3604 33.2602 23.3457 33.7783 23.0529C36.632 20.406 42.2463 21.9635 42.679 15.5776H23.3242ZM33.0353 23.7521C33.4795 23.7521 33.84 24.0405 33.84 24.3958C33.84 24.7512 33.4795 25.0393 33.0353 25.0393C32.591 25.0393 32.2309 24.7509 32.2309 24.3958C32.231 24.0405 32.5914 23.7521 33.0353 23.7521ZM33.0353 30.9115C33.4795 30.9115 33.84 31.1999 33.84 31.5552C33.84 31.9104 33.4795 32.1987 33.0353 32.1987C32.591 32.1987 32.2309 31.9103 32.2309 31.5552C32.231 31.1998 32.5914 30.9115 33.0353 30.9115ZM33.0353 28.5252C33.4795 28.5252 33.84 28.8136 33.84 29.1686C33.84 29.524 33.4795 29.8124 33.0353 29.8124C32.591 29.8124 32.2309 29.524 32.2309 29.1686C32.231 28.8132 32.5914 28.5252 33.0353 28.5252ZM33.0353 26.1388C33.4795 26.1388 33.84 26.4272 33.84 26.7822C33.84 27.1376 33.4795 27.426 33.0353 27.426C32.591 27.426 32.2309 27.1379 32.2309 26.7822C32.231 26.4268 32.5914 26.1388 33.0353 26.1388ZM23.7028 41.9289H42.2999C40.2472 31.4489 25.7249 31.3016 23.7028 41.9289Z" fill="#E85729"/>
</svg>
