<svg width="66" height="66" viewBox="0 0 66 66" fill="none" xmlns="http://www.w3.org/2000/svg">
<path d="M21.9717 24.8308C22.0906 24.061 23.0385 23.6511 23.4708 24.2165L37.6965 42.809C38.1289 43.3742 37.4845 44.1821 36.7116 44.0955C27.7294 43.0905 22.7001 44.8417 19.8822 47.1433L14.6289 40.2771C17.5874 38.1591 20.5925 33.7643 21.9717 24.8308Z" fill="#252525"/>
<path d="M8.02232 48.1302L9.07961 47.321L11.6321 50.6569L10.5744 51.466C10.4384 51.5701 10.2421 51.5441 10.1379 51.4079L7.96419 48.5667C7.86003 48.4304 7.8862 48.2343 8.02232 48.1302Z" fill="white"/>
<path d="M8.42857 46.4312L11.0452 44.4292L14.9373 49.5162L12.3206 51.5183C11.9838 51.776 11.4976 51.711 11.24 51.3742L8.28484 47.5115C8.02716 47.1746 8.09174 46.6884 8.42857 46.4307V46.4312Z" fill="#252525"/>
<path d="M10.9239 42.6074L16.8565 38.0681L22.5961 45.5697L16.6634 50.109C15.9001 50.6932 14.7973 50.5465 14.2135 49.783L10.5979 45.0574C10.0141 44.294 10.1605 43.1914 10.9239 42.6074Z" fill="white"/>
<path d="M22.0485 23.5473L22.4045 23.2749C22.6541 23.084 23.1465 23.308 23.5042 23.7756L38.1304 42.892C38.4881 43.3595 38.5758 43.8933 38.3261 44.0844L37.9701 44.3568C37.7205 44.5477 37.2281 44.3235 36.8704 43.8561L22.2442 24.7397C21.8864 24.2721 21.7988 23.7382 22.0485 23.5473Z" fill="white"/>
<path d="M29.4648 31.5655C30.493 31.4116 31.5713 31.8066 32.2479 32.6905C32.9242 33.5748 33.0236 34.7188 32.606 35.6706L29.465 31.5651L29.4648 31.5655Z" fill="#E85729"/>
<path d="M37.3701 31.9301L34.45 32.9255L34.3252 32.559L37.2453 31.5639L37.3701 31.9301ZM37.5225 37.4009L34.6316 36.3249L34.4964 36.6882L37.3872 37.7641L37.5225 37.4013V37.4009ZM36.5934 36.1807L34.9173 35.5571L34.7821 35.92L36.4582 36.5435L36.5934 36.1807ZM29.1882 26.5083L29.4705 29.5801L29.085 29.6156L28.8027 26.5437L29.1882 26.5083ZM30.1227 27.7241L30.2868 29.505L29.9014 29.5404L29.7377 27.7599L30.1227 27.7241ZM34.1268 27.8358L32.3687 30.3707L32.0505 30.1499L33.8087 27.615L34.1264 27.8358H34.1268ZM34.0615 29.3681L33.0419 30.8376L32.7238 30.6168L33.7433 29.1477L34.0615 29.3681ZM36.407 33.1243L34.7145 33.7011L34.5897 33.3347L36.2827 32.7578L36.4074 33.1239L36.407 33.1243Z" fill="white"/>
<path d="M20.5372 47.146C20.9368 47.6266 20.976 48.3675 21.9486 49.9622C22.495 50.8582 23.4156 50.4505 23.6173 51.6901C23.8185 52.9296 24.8149 52.8694 25.2145 53.3506C25.6141 53.8321 25.3802 54.3546 26.1981 55.0812L23.387 57.2323C22.1802 56.2396 20.4135 54.5252 18.7054 51.9123C18.084 50.9617 17.6031 50.2338 17.2305 49.6767L20.5373 47.1465L20.5372 47.146Z" fill="#252525"/>
<path d="M23.3861 57.2316L26.3487 54.9648C26.4064 54.9207 26.4739 54.9122 26.4997 54.9459L26.9198 55.4949C26.9456 55.5284 26.9197 55.5916 26.862 55.6357L23.8994 57.9025C23.8418 57.9466 23.7742 57.9551 23.7484 57.9214L23.3283 57.3724C23.3026 57.3388 23.3285 57.2757 23.3861 57.2316Z" fill="white"/>
<path d="M20.7501 46.9827L23.0138 49.1172L21.9478 49.9622L20.3359 47.2994L20.7501 46.9827Z" fill="#E85729"/>
<path d="M42.6452 35.3541L53.3066 39.6082L56.0138 32.8235L45.3523 28.5695L42.6452 35.3541Z" fill="#E85729"/>
<path d="M56.017 32.8224L45.3555 28.5687L51.9948 27.4153L56.017 32.8224Z" fill="#E85729"/>
<path d="M54.9817 31.0006L47.3584 27.9592C46.9628 27.8013 46.5101 27.9957 46.3524 28.3913L43.4473 35.6728L52.5086 39.288L55.4138 32.0065C55.5717 31.611 55.3769 31.1583 54.9817 31.0006Z" fill="white"/>
<path d="M56.017 32.8225L49.4473 34.1337L53.3099 39.6072L56.017 32.8225Z" fill="#E85729"/>
<path d="M53.31 39.6073L47.9792 37.4805L42.6484 35.3536L49.3348 34.083L53.31 39.6073Z" fill="#E85729"/>
<path d="M45.3555 28.5686L49.2181 34.0421L42.6484 35.3533L45.3551 28.5686H45.3555Z" fill="#E85729"/>
<path d="M48.0733 29.0962L54.0378 31.4164L53.9668 31.5986L48.0023 29.2785L48.0733 29.0962ZM47.4773 30.6289L51.3272 32.1268L51.2562 32.309L47.4062 30.8112L47.4773 30.6289ZM47.676 30.118L53.6405 32.4382L53.5695 32.6205L47.605 30.3003L47.676 30.118ZM47.875 29.607L53.8394 31.9272L53.7684 32.1095L47.8039 29.7893L47.875 29.607Z" fill="#C5C6C6"/>
<path d="M46.7203 21.3277L42.3385 22.765L41.1074 18.3411L45.7728 17.328C45.8461 16.8695 46.1578 16.1814 46.4609 15.9982L47.1361 14.6995L47.1615 13.8076L47.012 12.7753C46.9549 12.3793 47.5388 12.1762 47.9297 12.4466C48.3712 12.7516 48.6695 13.7109 48.6661 14.1792L48.6539 15.7409L50.8063 15.1972L51.5082 14.9656C52.2586 14.7178 52.7198 15.9379 51.9069 16.2068L51.2692 16.4174L51.2797 16.5256L52.0043 16.2527C52.6211 16.0201 53.0694 17.191 52.3678 17.4554L51.4069 17.8172L51.4191 17.9403L52.1292 17.6718C52.3709 17.5802 52.659 17.7779 52.7527 18.1137C52.846 18.4495 52.7263 18.7646 52.4866 18.8624L51.6727 19.193L51.6917 19.2566L52.2358 19.0805C52.8072 18.8959 53.1201 19.922 52.5918 20.1314L51.9223 20.3972L51.9233 20.4015L51.8093 20.442L51.807 20.4431L50.7456 20.8214L48.285 21.5997C47.7717 21.7624 47.2635 21.6369 46.9453 21.4784C46.8543 21.4332 46.778 21.3816 46.7197 21.3279L46.7203 21.3277Z" fill="#FED298"/>
<path d="M43.5065 17.4839L44.8694 22.1645L42.4305 23.0943L41.0195 18.0239L43.506 17.4839H43.5065Z" fill="#252525"/>
<path d="M44.4315 17.4497L45.7004 21.7178L44.8298 22.0149L43.5273 17.6264L44.4315 17.4497Z" fill="white"/>
<path d="M47.5707 12.7189L47.6944 13.3238C47.5372 13.3164 47.3827 13.333 47.233 13.4013L47.1312 12.8474C47.0682 12.5039 47.5013 12.3797 47.5707 12.7189Z" fill="white"/>
<path d="M30.9203 10.9693C28.1213 11.6406 26.3277 14.1653 26.9137 16.6093C27.2133 17.859 28.0771 18.8449 29.2241 19.4211C28.3003 20.6586 27.1547 20.8452 27.1547 20.8452C28.4197 21.4207 30.0382 20.5876 31.0022 19.9462C31.6574 20.0223 32.3484 19.9857 33.0424 19.8194C35.8415 19.1482 37.6351 16.623 37.0491 14.1791C36.4631 11.7352 33.7192 10.2985 30.9203 10.9697V10.9693Z" fill="#E85729"/>
<path d="M30.9211 10.9693C30.4447 11.0835 29.9974 11.2516 29.5859 11.464C30.6209 13.2044 32.9207 14.1156 35.2592 13.5546C35.7357 13.4404 36.183 13.2723 36.5944 13.0599C35.5595 11.3194 33.2595 10.4083 30.9211 10.9693Z" fill="#ED4C54"/>
<path d="M33.2408 4.38401C36.0399 3.7128 38.7832 5.14985 39.3695 7.59339C39.6691 8.84314 39.3462 10.1138 38.5854 11.1471C39.9699 11.8314 41.0756 11.4781 41.0756 11.4781C40.2089 12.5645 38.3889 12.556 37.2386 12.4214C36.689 12.7863 36.0569 13.0669 35.3626 13.2337C32.5635 13.9049 29.8201 12.4679 29.2339 10.0243C28.6482 7.58024 30.442 5.0551 33.2408 4.38401Z" fill="#252525"/>
<path d="M31.3185 8.27151L36.3737 7.05928C36.6013 7.00488 36.6837 7.34906 36.4562 7.40346L31.401 8.61569C31.1735 8.67009 31.091 8.32591 31.3185 8.27151ZM31.7854 10.5254L34.7866 9.80588C34.9218 9.7734 35.0044 10.1176 34.8691 10.1498L31.8679 10.8696C31.7327 10.9021 31.6502 10.5578 31.7854 10.5254ZM31.5866 9.39003L36.6418 8.1778C36.8694 8.1234 36.9518 8.46758 36.7243 8.52198L31.6691 9.73421C31.4417 9.78899 31.3591 9.44469 31.5866 9.39003Z" fill="white"/>
<path d="M29.3049 15.4766L34.3601 14.2644C34.5877 14.21 34.6701 14.5541 34.4426 14.6085L29.3874 15.8208C29.1597 15.875 29.0772 15.531 29.3049 15.4766ZM29.7718 17.7304L32.773 17.0108C32.9082 16.9783 32.9908 17.3225 32.8555 17.3548L29.8543 18.0743C29.7191 18.1068 29.6366 17.7625 29.7718 17.7304ZM29.573 16.595L34.6282 15.3827C34.8559 15.3283 34.9382 15.6725 34.7107 15.7269L29.6555 16.9392C29.4279 16.9941 29.3454 16.6498 29.573 16.595Z" fill="white"/>
</svg>
