<svg width="66" height="53" viewBox="0 0 66 53" fill="none" xmlns="http://www.w3.org/2000/svg">
<path d="M22.2979 18.2847H43.7007C44.4039 18.2847 44.9792 18.7447 44.9792 19.3074V29.8539H21.0195V19.3073C21.0195 18.7448 21.5947 18.2847 22.2979 18.2847Z" fill="#666666"/>
<path d="M21.8887 29.1594H44.1121V19.3074C44.1121 19.1283 43.9258 18.9792 43.7019 18.9792H22.2991C22.0752 18.9792 21.8889 19.1283 21.8889 19.3074V29.1593H21.8887V29.1594Z" fill="#CCCCCC"/>
<path d="M44.979 29.8538V30.9721C44.979 31.5346 44.345 31.9948 43.5696 31.9948H22.4289C21.6536 31.9948 21.0195 31.5348 21.0195 30.9721V29.8538H44.979Z" fill="white"/>
<path d="M27.006 20.1371H38.9948H40.7794C40.9954 20.1371 41.1727 20.2787 41.1727 20.4517V22.3234V29.1593H24.8281V22.3233V20.4516C24.8281 20.2787 25.005 20.137 25.2214 20.137H27.0064L27.006 20.1371Z" fill="white"/>
<path d="M25.2214 20.1372H40.7794C40.9954 20.1372 41.1727 20.2787 41.1727 20.4518V21.0809H24.8281V20.4518C24.8281 20.2789 25.005 20.1372 25.2214 20.1372Z" fill="#828282"/>
<path d="M32.1035 20.4631H39.9986C40.0568 20.4631 40.1041 20.501 40.1041 20.5475V20.7043C40.1041 20.7508 40.0564 20.7887 39.9986 20.7887H32.1035C32.0454 20.7887 31.998 20.7505 31.998 20.7043V20.5475C31.9979 20.5011 32.0456 20.4631 32.1035 20.4631Z" fill="white"/>
<path d="M25.6114 20.407C25.7362 20.407 25.8376 20.4878 25.8376 20.588C25.8376 20.688 25.7363 20.7692 25.6114 20.7692C25.4863 20.7692 25.3848 20.6882 25.3848 20.588C25.3848 20.4878 25.4863 20.407 25.6114 20.407Z" fill="#21D0C3"/>
<path d="M26.5055 20.407C26.6306 20.407 26.7321 20.4878 26.7321 20.588C26.7321 20.688 26.6311 20.7692 26.5055 20.7692C26.3807 20.7692 26.2793 20.6882 26.2793 20.588C26.2794 20.4878 26.3807 20.407 26.5055 20.407Z" fill="#FAD24D"/>
<path d="M27.3985 20.407C27.5233 20.407 27.6247 20.4878 27.6247 20.588C27.6247 20.688 27.5234 20.7692 27.3985 20.7692C27.2735 20.7692 27.1719 20.6882 27.1719 20.588C27.1719 20.4878 27.2735 20.407 27.3985 20.407Z" fill="#FF5B62"/>
<path d="M25.7129 21.4268H40.2879V25.2729H25.7129V21.4268Z" fill="#ECF0F1"/>
<path d="M27.875 25.8345C28.4102 25.8345 28.8437 26.1815 28.8437 26.6094C28.8437 27.0375 28.4099 27.3845 27.875 27.3845C27.3398 27.3845 26.9063 27.0375 26.9063 26.6094C26.9061 26.1815 27.34 25.8345 27.875 25.8345Z" fill="#E85729"/>
<path d="M33 25.8345C33.5352 25.8345 33.9687 26.1815 33.9687 26.6094C33.9687 27.0375 33.5349 27.3845 33 27.3845C32.465 27.3845 32.0312 27.0375 32.0312 26.6094C32.0312 26.1815 32.465 25.8345 33 25.8345Z" fill="#252525"/>
<path d="M38.1252 25.8345C38.6602 25.8345 39.094 26.1815 39.094 26.6094C39.094 27.0375 38.6602 27.3845 38.1252 27.3845C37.59 27.3845 37.1562 27.0375 37.1562 26.6094C37.1562 26.1815 37.59 25.8345 38.1252 25.8345Z" fill="#E85729"/>
<path d="M26.4844 27.6428H29.2648V27.7635H26.4844V27.6428ZM26.4844 28.401H28.3518V28.5217H26.4844V28.401ZM26.4844 28.0218H29.2648V28.1424H26.4844V28.0218Z" fill="#DCE3DB"/>
<path d="M31.6094 27.6428H34.3898V27.7635H31.6094V27.6428ZM31.6094 28.401H33.4768V28.5217H31.6094V28.401ZM31.6094 28.0218H34.3898V28.1424H31.6094V28.0218Z" fill="#DCE3DB"/>
<path d="M36.7344 27.6428H39.5144V27.7635H36.7344V27.6428ZM36.7344 28.401H38.6018V28.5217H36.7344V28.401ZM36.7344 28.0218H39.5144V28.1424H36.7344V28.0218Z" fill="#DCE3DB"/>
<path d="M25.6406 25.5183H40.2884V25.5665H25.6406V25.5183Z" fill="#ECF0F1"/>
<path d="M33.0008 31.2316C33.2439 31.2316 33.441 31.074 33.441 30.8795C33.441 30.685 33.2439 30.5273 33.0008 30.5273C32.7576 30.5273 32.5605 30.685 32.5605 30.8795C32.5605 31.074 32.7576 31.2316 33.0008 31.2316Z" fill="#B6B6B8"/>
<path d="M35.7626 33.6037L37.7953 34.1248H28.2031L29.8433 33.6037V31.9949H35.7624L35.7626 33.6037Z" fill="#C2C2C4"/>
<path d="M35.7648 33.6037L29.8457 31.9949H35.7648V33.6037Z" fill="#B0B0B0"/>
<path d="M29.8433 33.6035H35.7624L37.7952 34.1247V34.3491H32.9993H28.2031V34.1247L29.8433 33.6035Z" fill="#ECF0F1"/>
<path d="M11.3876 38.1473H11.649L13.1787 37.4799L13.4279 36.7013C13.0635 36.4071 12.6871 35.9088 12.3438 35.2962C12.3157 35.2997 12.288 35.3014 12.2582 35.3014C11.8541 35.3014 11.4535 34.9495 11.3632 34.5151C11.2928 34.175 11.4339 33.8857 11.6919 33.7759C11.3497 32.3802 11.1226 30.2371 14.1278 29.7075C15.9304 29.3897 16.5744 30.5029 16.6529 30.625C17.744 30.1354 18.4372 30.8697 18.615 31.2581C18.9372 31.9608 18.8324 33.2672 18.6677 33.8447C18.8486 33.9828 18.9369 34.2314 18.8783 34.5151C18.7894 34.9424 18.4002 35.2897 18.0032 35.3011C17.682 35.8655 17.2512 36.3494 16.8136 36.7009L17.0624 37.4799H17.0838L18.5715 38.1473H18.8542C20.1659 38.1473 21.3179 38.6989 21.9388 39.5129C18.5336 43.126 11.7502 43.2868 8.08398 39.848C8.62088 38.8524 9.90105 38.1472 11.3864 38.1472H11.3875L11.3876 38.1473Z" fill="#E85729"/>
<path d="M47.3619 38.1473H47.6234L49.1531 37.4799L49.4023 36.7013C49.0379 36.4071 48.6615 35.9088 48.3182 35.2962C48.2901 35.2997 48.2624 35.3014 48.2326 35.3014C47.8285 35.3014 47.4278 34.9495 47.3376 34.5151C47.2672 34.175 47.4082 33.8857 47.6663 33.7759C47.324 32.3802 47.0969 30.2371 50.1021 29.7075C51.9047 29.3897 52.5487 30.5029 52.6273 30.625C53.7183 30.1354 54.4116 30.8697 54.5893 31.2581C54.9116 31.9608 54.8068 33.2672 54.6421 33.8447C54.8229 33.9828 54.9112 34.2314 54.8527 34.5151C54.7637 34.9424 54.3746 35.2897 53.9775 35.3011C53.6563 35.8655 53.2255 36.3494 52.788 36.7009L53.0368 37.4799H53.0582L54.5459 38.1473H54.8286C56.1402 38.1473 57.2922 38.6989 57.9132 39.5129C56.2923 41.2326 53.7175 42.3448 50.8181 42.3448C48.111 42.3448 45.6875 41.3756 44.0586 39.848C44.5955 38.8524 45.8757 38.1472 47.361 38.1472L47.3619 38.1473Z" fill="#E85729"/>
<path d="M29.3756 12.191H29.637L31.1668 11.5236L31.4159 10.745C31.0515 10.4508 30.6751 9.95252 30.3318 9.33991C30.3037 9.34342 30.276 9.34506 30.2462 9.34506C29.8421 9.34506 29.4415 8.99324 29.3513 8.55881C29.2809 8.21874 29.4219 7.9294 29.68 7.81958C29.3377 6.42391 29.1106 4.28077 32.1158 3.75117C33.9184 3.43336 34.5624 4.5466 34.6409 4.66869C35.732 4.17909 36.4252 4.91338 36.603 5.30181C36.9253 6.00454 36.8205 7.31091 36.6557 7.88836C36.8366 8.02653 36.9249 8.27514 36.8664 8.55881C36.7774 8.98612 36.3882 9.33341 35.9912 9.34476C35.67 9.90921 35.2392 10.3931 34.8017 10.7446L35.0505 11.5236H35.0719L36.5596 12.191H36.8423C38.1539 12.191 39.3059 12.7426 39.9269 13.5566C38.306 15.2763 35.7312 16.3884 32.8317 16.3884C30.1247 16.3884 27.7011 15.4192 26.0723 13.8916C26.6092 12.896 27.8893 12.1908 29.3747 12.1908L29.3756 12.191Z" fill="#E85729"/>
<path d="M33.2766 14.1414V17.6416H32.9727V14.1414H33.2766Z" fill="#FEFEFE"/>
<path d="M33.1237 14.709C33.5156 14.709 33.8333 14.4549 33.8333 14.1414C33.8333 13.8279 33.5156 13.5737 33.1237 13.5737C32.7318 13.5737 32.4141 13.8279 32.4141 14.1414C32.4141 14.4549 32.7318 14.709 33.1237 14.709Z" fill="#FEFEFE"/>
<path d="M14.5023 32.9785V24.2953V24.1738H14.6542H19.9092V24.417H14.8059V32.9785H14.502H14.5023ZM51.1927 32.9785V24.417H45.6876V24.1738H51.3447H51.4965V24.2953V32.9784H51.1927V32.9785Z" fill="#FEFEFE"/>
<path d="M14.6549 33.5464C15.0469 33.5464 15.3646 33.2923 15.3646 32.9788C15.3646 32.6653 15.0469 32.4111 14.6549 32.4111C14.263 32.4111 13.9453 32.6653 13.9453 32.9788C13.9453 33.2923 14.263 33.5464 14.6549 33.5464Z" fill="#FEFEFE"/>
<path d="M51.3444 33.5464C51.7363 33.5464 52.054 33.2923 52.054 32.9788C52.054 32.6653 51.7363 32.4111 51.3444 32.4111C50.9525 32.4111 50.6348 32.6653 50.6348 32.9788C50.6348 33.2923 50.9525 33.5464 51.3444 33.5464Z" fill="#FEFEFE"/>
</svg>
