<svg width="61" height="61" viewBox="0 0 61 61" fill="none" xmlns="http://www.w3.org/2000/svg">
<g clip-path="url(#clip0_451_464)">
<path d="M1.1456 22.6243C1.59357 21.2909 2.7478 20.3187 4.13746 20.1062L20.311 17.6347L27.5758 2.15883C28.1953 0.839703 29.5192 0 30.9736 0C32.4291 0 33.752 0.839703 34.3715 2.15883L41.6372 17.6357L57.8108 20.1071C59.2004 20.3197 60.3547 21.2909 60.8017 22.6253C61.2487 23.9597 60.9113 25.4294 59.9286 26.4378L48.1175 38.5491L50.9149 55.6835C51.1456 57.1017 50.5442 58.5276 49.3709 59.3568C48.1985 60.186 46.6506 60.2699 45.3897 59.5741L30.9727 51.6012L16.5557 59.5741C15.9867 59.8887 15.3605 60.0431 14.7372 60.0431C13.9785 60.0431 13.2198 59.8124 12.5745 59.3568C11.4012 58.5285 10.8008 57.1027 11.0314 55.6835L13.8288 38.5491L2.01676 26.4378C1.03599 25.4294 0.698586 23.9597 1.1456 22.6243Z" fill="#E85729"/>
</g>
<defs>
<clipPath id="clip0_451_464">
<rect width="61" height="61" fill="white" transform="matrix(-1 0 0 1 61 0)"/>
</clipPath>
</defs>
</svg>
