<svg width="95" height="95" viewBox="0 0 95 95" fill="none" xmlns="http://www.w3.org/2000/svg">
<path d="M12.2437 12.4728H82.7584C85.0751 12.4728 86.9703 14.3686 86.9703 16.6851V60.1226H8.03125V16.6849C8.03125 14.3682 9.92643 12.4727 12.2432 12.4727L12.2437 12.4728Z" fill="#666666"/>
<path d="M10.8912 57.2626H84.1093V16.6846C84.1093 15.9463 83.4955 15.3325 82.7572 15.3325H12.2427C11.505 15.3325 10.8906 15.9463 10.8906 16.6846V57.2624L10.8912 57.2626Z" fill="white"/>
<path d="M86.9705 60.1226V64.7291C86.9705 67.0464 84.8811 68.9414 82.327 68.9414H12.6747C10.1207 68.9414 8.03125 67.0462 8.03125 64.7291V60.1226H86.9699H86.9705Z" fill="white"/>
<path d="M47.5006 65.7982C48.3014 65.7982 48.9505 65.149 48.9505 64.3483C48.9505 63.5476 48.3014 62.8984 47.5006 62.8984C46.6999 62.8984 46.0508 63.5476 46.0508 64.3483C46.0508 65.149 46.6999 65.7982 47.5006 65.7982Z" fill="#B6B6B8"/>
<path d="M56.6032 75.5681L63.3007 77.7138H31.6973L37.1009 75.5681V68.9419H56.6027V75.5681H56.6032Z" fill="#C2C2C4"/>
<path d="M37.1013 75.5684H56.603L63.3005 77.714V78.6382H47.4992H31.6973V77.714L37.1009 75.5684H37.1013Z" fill="#ECF0F1"/>
<path d="M37.1016 68.9414H56.6033V75.5677L37.1016 68.9414Z" fill="#919191"/>
<path d="M69.8359 47.5132H80.2729V48.3468H69.8359V47.5132Z" fill="#252525"/>
<path d="M69.8359 50.1997H80.2729V51.0334H69.8359V50.1997Z" fill="#CCCCCC"/>
<path d="M69.8359 52.8857H80.2729V53.7194H69.8359V52.8857Z" fill="#E85729"/>
<path d="M68.8171 47.5132H67.7988V48.3468H68.8169V47.5132H68.8171Z" fill="#252525"/>
<path d="M68.8171 50.1997H67.7988V51.0334H68.8169V50.1997H68.8171Z" fill="#CCCCCC"/>
<path d="M68.8171 52.8862H67.7988V53.7199H68.8169V52.8862H68.8171Z" fill="#E85729"/>
<path d="M67.4378 19.7709C68.5251 19.7709 68.1527 20.1554 68.7042 20.3305C69.1435 20.4708 68.8459 20.2435 69.3597 20.2199C69.5163 20.2082 69.6733 20.2546 69.8293 20.2376C70.2765 20.1965 70.0455 20.1734 70.2017 20.0973C70.5298 19.9401 71.6918 19.9693 71.9752 20.068C72.2579 20.1672 72.2132 20.2257 72.6604 20.3249C73.2343 20.4467 73.8674 20.2023 74.3741 20.4704C74.6949 20.6456 74.5537 20.6983 75.0599 20.7042C75.477 20.7042 75.8716 20.6049 76.2516 20.6983C76.6984 20.8029 76.4079 20.6806 76.9365 20.599C77.1078 20.576 77.2046 20.599 77.3614 20.6515C77.7342 20.7742 77.652 20.8554 78.1513 20.8326C79.0302 20.7806 79.5666 21.1937 80.3565 21.3046C80.9005 21.38 81.452 21.2636 81.4147 21.9227C80.8486 21.9926 80.3945 21.4911 79.865 21.8058C79.8874 22.3012 80.1706 21.9863 80.4461 22.3888C80.4242 22.3951 80.3945 22.4005 80.3789 22.4064C79.9618 22.5057 79.7754 22.628 79.4776 23.0183C79.0677 23.0183 78.7623 22.9254 78.33 23.1469C78.2555 23.8234 79.1345 23.6483 79.0304 24.6571C79.0232 24.8436 79.0232 25.1531 78.9929 25.4149C78.6205 25.3802 77.7338 24.4352 77.5625 24.1552C77.249 23.6416 78.1587 22.5053 77.6223 22.5341C77.4286 22.5463 77.5551 22.6567 77.3542 22.8612C76.8252 22.8372 77.0708 22.4411 76.4227 22.6801C76.2739 23.2519 76.6389 23.1814 76.3555 23.3332C76.065 23.4844 75.8416 23.2633 75.6251 23.228C75.5802 23.2163 74.1722 23.2917 74.1056 23.321C73.949 23.5078 73.6662 24.2251 73.5989 24.4059C74.0607 24.6799 74.381 24.6157 74.545 24.6215C74.7689 24.6274 74.8433 24.7623 75.022 24.802C75.551 24.9306 75.0371 24.6326 75.4614 24.802C75.7817 25.1523 76.1019 25.4961 76.4227 25.8405C76.363 25.9745 76.3108 26.1023 76.2587 26.2309C75.9162 25.975 75.864 25.4321 75.4397 25.275C75.3725 25.8346 75.939 25.5778 75.6256 26.8898C75.3575 28.0329 75.1564 27.6013 74.6723 27.7294C74.5604 27.7993 74.263 28.569 74.2333 28.6974C74.5904 29.0299 75.03 29.205 75.0076 29.8921C74.7988 29.9973 74.665 30.096 74.3823 30.0201C74.0839 28.8423 74.1808 29.4312 73.8236 29.0759C73.4514 28.7026 73.9204 28.3528 72.8847 28.7668C72.7281 28.5395 72.825 28.5629 72.7426 28.3122C72.4823 28.3469 72.1243 28.6849 72.0421 28.9473C72.2661 29.0642 72.4442 29.2154 72.5561 29.2331C72.7723 29.2561 72.8764 29.0991 73.1675 29.285C73.0035 29.6116 72.8842 29.5414 72.7504 29.8739C72.9884 30.2643 73.3987 30.5447 73.5399 31.0633C73.5471 31.0809 73.5549 31.1037 73.5623 31.1275C73.6445 31.3956 73.7045 31.1917 73.7186 31.5644C73.7264 31.8385 73.592 31.9905 73.4952 32.2643C73.0109 33.5294 72.3034 33.3552 71.3426 33.8213C71.3577 34.1712 71.6629 34.7362 70.9624 34.6083C70.9105 34.0434 71.2087 34.3343 71.1489 33.7927C70.6943 33.635 70.4336 33.8506 70.2325 34.3285C70.4112 35.1681 71.4243 35.2322 71.1562 36.5152C70.8426 36.777 70.5303 37.0342 70.2247 37.291C69.9414 37.1099 70.2472 37.2437 69.979 36.9114C69.6957 36.5731 69.3606 36.3341 69.048 36.0543C69.025 36.1011 69.0027 36.1473 68.9804 36.1946C68.8763 36.4681 68.7424 36.7772 68.8097 37.0516C68.8394 37.1913 69.0778 37.7042 69.2044 37.8153C69.4283 38.0309 69.6584 38.0777 69.7334 38.416C69.7631 38.5323 69.8751 39.401 69.8751 39.4535C68.9515 39.1153 69.2268 38.503 68.8916 37.9083C68.7498 37.6402 68.7129 37.7038 68.5266 37.4416C68.5116 36.9637 68.6531 36.5729 68.5416 36.0779C68.4672 35.7858 68.3255 35.3602 68.2511 35.0631C67.9158 35.1331 67.618 35.5993 67.5428 35.1449C67.5282 35.0631 67.5131 34.9872 67.5057 34.9176C67.312 34.078 67.0365 34.3053 66.7533 33.5004C66.2987 33.6459 66.2841 33.6582 65.7475 33.7452L65.7402 33.755L65.7417 33.7847C65.5276 34.0816 65.7525 33.9554 65.3777 34.2656C64.9305 34.633 64.6399 35.1349 64.141 35.4318C64.0813 35.9511 64.1859 36.0673 64.0519 36.6855C64 36.9125 63.7389 37.5246 63.4335 37.4784C63.3367 37.4608 62.9268 36.4696 62.8299 36.1955C62.6659 35.7292 62.4796 35.3852 62.3607 34.8483C62.2935 34.5625 62.2482 34.0146 62.1811 33.8224C61.8608 33.8688 61.8758 34.0677 61.5702 33.8574C61.3541 33.7062 61.4515 33.6127 61.3318 33.3848C61.0784 33.1516 60.8179 32.9186 60.5575 32.6853C60.356 32.6217 59.5806 32.7321 59.2533 32.6965C58.665 32.6445 58.6128 32.6788 58.2623 32.2191C57.6441 32.2484 57.6962 32.4749 57.0932 31.968C56.698 31.6418 56.7724 31.1167 56.1987 31.4147C56.1768 31.8927 56.4148 31.9977 56.6308 32.2198C56.787 32.3886 56.9811 32.5055 57.0629 32.7328C57.0702 32.7388 57.1078 32.9547 57.1149 32.9833C57.6736 33.0184 57.8079 32.756 58.1131 32.5341C58.4115 32.8082 58.1204 32.8555 58.5525 33.0703C58.895 33.2397 58.8284 33.1403 59.0518 33.4138C59.1637 33.7817 58.2848 34.7785 57.9936 34.9596C57.7702 35.0993 57.6506 35.0178 57.45 35.1811C57.1522 35.4264 57.4875 35.3913 56.9657 35.5778C56.4076 35.7764 55.8556 36.1959 55.2672 36.231C55.1401 35.8927 55.0141 35.5485 54.887 35.2045C54.5148 34.033 54.5293 34.4872 54.1497 33.8808C53.9706 33.6185 54.045 33.4492 53.9257 33.216C53.8435 33.0414 53.717 32.9655 53.6055 32.7497C53.4342 32.4172 53.2333 31.8984 52.8384 31.9509L52.6467 30.9985C52.6963 30.9976 52.7586 30.9926 52.8384 30.9829C52.9202 30.82 53.5236 29.3384 52.741 29.5253C52.5098 29.5832 52.6666 29.665 52.3389 29.5832C51.9964 29.4962 52.3243 29.432 51.9443 29.4843C51.5715 29.5362 51.1247 29.8576 50.8338 28.7558C50.7222 28.3586 50.5208 28.0151 50.0595 28.615C50.1788 28.8195 50.2604 28.8369 50.3944 29.0351C50.3573 29.093 50.2309 29.2395 50.186 29.2856C49.9329 29.5303 50.2907 29.4136 49.8804 29.4661C49.657 29.3032 49.7017 29.0928 49.4858 28.8018C49.1056 28.2593 49.3514 28.5103 49.1572 27.9916C49.0048 27.8606 48.7527 27.7628 48.5463 27.6344V27.6305L48.5352 27.6227C48.4833 27.588 48.4311 27.5531 48.3864 27.5117C48.0584 27.2265 47.9912 26.9701 47.6266 27.0338C47.6188 27.3019 47.6563 27.3136 47.7906 27.4887C48.2973 28.1068 48.1409 27.8971 48.5352 28.1239L48.5502 28.1322V28.1346C48.6426 28.1866 48.7503 28.2602 48.8967 28.3643C48.392 28.7983 48.8562 28.8466 48.5502 28.9911V28.9917L48.5469 28.9931L48.5358 28.9991C48.5055 29.0102 48.4764 29.0225 48.4539 29.0338C48.3493 28.7773 48.5805 28.8998 48.3118 28.5265C48.163 28.3343 48.0218 28.276 47.791 28.1702C47.2093 27.9021 47.2843 27.6928 46.9265 27.3425C46.5241 27.3548 46.6135 27.4768 46.3304 27.6169C45.9878 27.7798 46.0403 27.5882 45.6377 27.6229C45.3097 28.1884 45.7795 27.7164 45.1831 28.183C44.4678 28.7247 45.0566 29.2908 43.9093 29.4602C43.8271 29.4713 43.7969 29.4602 43.7162 29.4889C43.5069 29.5618 43.6178 29.5051 43.5113 29.6112L43.3215 29.6184C43.2907 29.38 43.0237 29.3401 42.7395 29.3308C42.5832 28.8119 42.5832 28.9404 42.7024 28.4625C42.7695 28.1944 42.7096 28.0652 42.7695 27.7971C42.9183 27.1269 44.0875 27.7917 44.4233 27.5173C44.5795 27.2316 44.6024 26.9523 44.4233 26.6777C44.2365 26.4036 43.9912 26.4389 43.8646 26.1764C44.1474 25.9899 43.9385 26.153 44.1849 26.1005C44.4749 26.0368 44.4374 25.955 44.7801 25.8906C45.0857 25.8323 45.28 25.5576 45.5778 25.3716C46.0023 25.1035 45.8008 24.864 46.3151 24.7827C47.1425 24.6424 46.6057 24.6658 46.6957 23.9134C46.8213 23.867 46.9404 23.8142 47.0601 23.7622C47.321 24.0947 46.9929 23.9607 47.3058 24.1817C47.388 24.1353 47.4848 24.0888 47.5739 24.0424C47.529 23.6804 47.3577 23.7503 47.2458 23.3017C46.836 23.3653 46.6872 23.7038 46.3595 23.5815C46.0392 23.4646 46.0248 23.0159 46.0392 22.6426C46.158 22.3628 46.7541 22.2114 46.9848 22.1413C47.3575 22.0186 47.305 21.7739 47.6481 21.4408C48.0953 21.0033 47.7669 21.4468 47.9834 20.8816C48.4749 20.8636 48.2443 20.846 48.5343 20.7005L48.5454 20.696L48.5488 20.6946L48.5751 20.6843C48.7464 20.6085 48.9698 20.5908 49.1932 20.5149C50.0122 20.2468 50.3476 20.381 50.9434 20.6201C51.4058 20.8066 52.7985 20.8124 52.9032 21.3839C52.5679 21.7273 52.2476 21.4768 51.7634 21.5071C51.853 21.95 51.8905 21.95 52.2996 22.0721C52.3668 21.8618 52.2699 21.944 52.3814 21.8097C52.5157 21.839 52.6495 21.8616 52.7835 21.885C52.9178 21.4364 53.0741 21.5006 53.529 21.4481C53.4546 21.1389 53.3724 21.2265 53.5437 20.9818C54.0133 21.0282 53.6337 20.9877 53.8639 21.3551C54.192 21.3141 54.5122 20.9584 54.9666 20.9118C55.25 20.8831 55.2348 20.9877 55.6368 20.9475C55.9649 20.9118 55.9499 20.7957 56.2777 20.9298C56.3965 20.7137 56.2777 20.7196 56.5677 20.6675C57.0149 20.5916 57.4023 20.8597 57.8346 20.918C57.5144 20.5329 57.2093 20.6085 57.6034 19.9674C58.1027 19.8681 58.1475 19.9381 58.3633 20.3051C58.5121 20.2238 58.557 20.1422 58.6388 20.1186C58.8627 20.0661 58.9372 20.2526 59.4209 19.9731C59.7265 19.8037 59.2272 19.9143 59.7786 19.7629C59.9948 19.7104 59.9948 19.798 60.1879 19.6406C60.6279 19.4829 61.0602 19.3198 61.4996 19.1564C61.9688 19.1504 61.7307 19.2903 62.2672 19.0922C62.9971 18.8352 63.2055 19.1098 63.7569 19.1272C65.047 19.1762 64.5897 19.8952 66.6075 19.8952C66.9283 19.8952 66.9058 19.7726 67.3599 19.7672C67.3823 19.7672 67.4048 19.7672 67.4348 19.7672L67.4378 19.7709ZM75.3124 30.3769C75.3495 30.6567 75.4911 30.8666 75.7373 30.9776C75.9904 30.5814 75.6776 30.558 76.6012 30.2717C76.661 30.2541 76.7205 30.2307 76.7725 30.2081C77.5623 29.7652 77.0181 30.0855 77.6145 29.8524C77.6223 29.4913 77.5323 29.2518 77.5026 28.8614C77.4876 28.4239 77.3386 28.2545 76.9439 28.1849C76.9064 28.9956 77.4729 28.7334 76.5565 29.5782C76.0795 30.0274 75.7666 29.5028 75.3126 30.3773L75.3124 30.3769ZM70.1273 41.4029C70.1793 41.1581 70.2169 40.855 70.3282 40.6739C70.6786 40.6739 70.3585 40.9596 70.8875 40.8954C70.9771 40.6919 70.9771 40.5926 70.9394 40.3764C70.701 40.3239 70.6342 40.3705 70.4624 40.5167C70.4104 40.4585 70.3587 40.4004 70.3062 40.3416C70.0605 40.167 70.09 40.5694 69.8594 40.1143C69.6137 39.6422 69.8891 39.6359 69.3526 39.3097C69.0246 39.1112 68.9127 39.0006 68.645 38.7262C68.1831 38.2419 68.5925 38.4581 67.8254 38.2248C67.8104 38.7553 67.9295 38.441 68.3394 39.0585C68.5106 39.3505 68.6747 39.642 68.8461 39.9332C69.0923 40.3356 69.346 41.4316 70.128 41.4031H70.1275L70.1273 41.4029ZM71.3113 40.6382C71.9746 40.7375 72.4505 40.9769 72.6376 40.8485C72.8391 40.6206 72.7719 40.4698 72.9728 40.1369C73.241 39.7057 73.0547 39.84 73.3974 39.4604C73.2037 38.7668 73.114 39.0759 73.4864 38.3701C73.4271 38.1491 73.263 37.8927 73.0766 37.7587C72.8604 37.8927 73.0469 37.7407 72.8979 37.933C72.6366 38.2187 72.3685 38.5048 72.1152 38.7906C71.8913 39.0067 71.9809 38.8425 71.6382 39.1114C71.5413 39.1639 71.4445 39.2166 71.3404 39.2691C71.1764 39.327 71.0717 39.1411 71.0348 39.6248C71.0124 39.8463 71.2432 40.3416 71.3103 40.6384L71.3113 40.6382ZM55.4303 27.0659C55.4823 27.778 55.9146 28.0515 56.2202 28.3779C56.1827 28.7161 56.1003 28.6284 56.1077 29.1006C56.4733 29.3576 56.7408 29.5149 57.2182 29.3863C57.2854 28.815 57.0984 28.8441 56.9204 28.4539C56.9501 28.4072 57.032 28.3487 57.047 28.337C57.181 28.1624 57.1142 28.407 57.181 28.1092C56.831 27.9986 56.2645 27.6489 56.2202 27.1885C56.3909 27.0545 56.3389 27.136 56.4655 27.0545C56.741 26.8794 56.5327 27.1475 56.6967 26.8506C56.5555 26.5825 56.3983 26.5352 56.0562 26.6695C55.9072 26.7284 55.5121 27.0022 55.4303 27.0659ZM52.3831 27.2529C52.1523 26.9384 52.1669 26.7809 51.7201 26.7692C51.5414 26.956 51.3327 27.2355 51.2358 27.521C51.087 27.9526 51.1909 27.6553 51.2062 28.1216C51.1984 28.1392 51.2062 28.163 51.2062 28.1799C51.1984 28.4597 51.1312 28.1274 51.1759 28.3844C51.5262 28.3144 51.2581 28.3202 51.519 28.2385C51.7647 28.1572 52.5172 27.9353 52.7332 27.988C53.2472 28.1044 53.6799 28.5016 54.261 28.1044C54.2313 27.5976 53.6049 27.4049 53.1731 27.1831C53.1961 26.7168 53.3219 27.0842 53.2919 26.6356C53.1431 26.6296 53.0538 26.6063 52.9123 26.6643C52.5774 26.8098 52.7629 26.8512 52.7629 26.9031C52.7779 27.1536 53.0982 26.8512 52.756 27.1601C52.6592 27.2419 52.5026 27.2419 52.3833 27.2531L52.3831 27.2529ZM43.6845 23.718C43.6704 24.5346 43.9604 24.2602 44.2359 24.6627C44.1097 25.0067 44.0871 24.7385 43.9459 25.0939C43.8194 25.3917 43.9756 25.1236 43.8934 25.6423C44.1095 25.6535 44.4296 25.5787 44.7133 25.5548C45.1154 25.5201 45.108 25.4848 45.2495 25.0827C45.0261 24.8146 44.8024 24.5465 44.5716 24.2782C44.2804 23.847 44.5716 24.1433 44.4819 23.7822C44.4153 23.6542 44.3554 23.5264 44.296 23.3978C43.9092 23.5267 43.9461 23.4913 43.6846 23.7186L43.6845 23.718Z" fill="#252525"/>
<path d="M52.8382 31.9526C52.756 32.2144 53.2032 33.1012 53.3147 33.3164C53.4266 33.5326 53.6052 33.6259 53.6577 33.9348C53.7321 34.3603 53.6427 34.3076 53.8811 34.5933C54.3805 35.1823 53.8587 35.0776 54.6335 35.6549C55.2147 36.0864 55.0657 36.2145 55.3115 36.7917C55.6917 36.8964 56.8237 36.4009 57.0174 36.5464C57.2486 36.9489 56.7499 37.5903 56.6228 37.9402C56.2057 39.1127 55.4757 39.0953 54.9165 39.9926C54.6113 40.4769 54.4697 40.541 54.1869 41.1237C53.8661 41.7825 54.8347 43.6072 54.2541 44.3713C54.1276 44.5465 53.7173 44.6517 53.2039 45.1819C52.6599 45.7592 53.2189 45.6599 53.0102 46.6222C52.8462 46.8441 52.6452 46.856 52.4437 47.0129C52.3693 47.2402 52.4291 47.4213 52.3025 47.7011C52.1682 48.0397 52.1463 47.8583 51.9526 48.1327C51.8108 48.3479 51.8255 48.4355 51.662 48.634C51.521 48.8146 51.4458 48.8673 51.3121 48.984C50.6638 49.567 49.2703 49.5846 49.1517 49.503C48.8237 49.2285 49.0477 49.159 48.9653 48.774C48.886 48.4357 48.7025 48.1526 48.5485 47.8915V47.8828L48.5368 47.8627C48.4624 47.7351 48.3951 47.6122 48.3578 47.4953C48.0897 46.6671 48.1871 46.0381 47.7178 45.1986C47.1289 44.1132 48.0455 43.5482 48.0078 42.9361C47.9928 42.7732 47.934 42.6743 47.9182 42.5453C47.8067 41.8688 47.7401 41.2625 47.2777 40.7314C46.771 40.1547 46.8383 40.3587 47.0022 39.409C47.2106 38.3188 46.7341 38.5984 46.0639 38.5694C45.7353 37.5779 45.0948 38.0612 44.4544 38.3533C44.052 38.5338 43.903 38.3013 43.448 38.365C42.4348 38.4989 43.2324 38.9246 41.8761 37.8747C41.31 37.4372 41.6902 37.6586 41.3547 37.111C41.2432 36.9129 40.9001 36.6507 40.7433 36.4522C40.2293 35.8224 40.8402 35.1871 40.7511 34.464C40.5945 33.1227 40.3709 34.2889 41.1385 32.6681C41.5406 31.8051 42.1518 31.7994 42.308 31.4138C42.442 31.0704 42.3524 30.8249 42.6058 30.5106C42.8292 30.2541 43.1495 30.3061 43.2766 29.904C43.3191 29.7868 43.3315 29.6938 43.3219 29.6198L43.5117 29.6125L43.4994 29.6242C43.5968 29.8461 43.4629 29.8107 43.8497 29.863C44.5574 29.956 44.647 29.5305 45.1614 29.4255C45.4145 29.373 47.0016 29.3086 47.113 29.3379C47.4555 29.7116 47.1727 29.974 47.1727 30.2885C47.5455 30.4807 48.0741 30.5273 48.2901 30.726C48.5357 30.9533 48.4166 30.9182 48.5357 30.9587L48.5508 30.9631V30.9652C48.5951 30.9783 48.6602 31.0012 48.7708 31.0425C49.0686 31.1418 49.0541 31.1997 49.3738 31.2231C49.6644 30.2725 49.3666 30.3718 50.7671 30.8087C52.2277 31.2754 51.5716 30.8498 52.1903 30.914C52.4383 30.9379 52.4311 31.0039 52.6467 30.9997L52.8384 31.9521H52.8382V31.9526ZM56.5033 43.3345C56.1756 43.4974 56.1305 43.8707 55.8851 44.0805C55.6169 44.3199 55.2592 44.2091 55.1546 44.6518C55.0206 45.2057 55.3785 45.0363 54.9833 45.7596C54.8421 46.0277 54.8345 46.6984 55.0505 46.8964C55.6988 47.5083 56.0493 45.9635 56.1981 45.4798C56.31 45.1357 56.4142 44.745 56.5328 44.4245C56.6523 44.0805 56.8236 43.7768 56.5033 43.3345Z" fill="#CCCCCC"/>
<path d="M30.6481 44.9826C30.4472 44.6564 29.9555 44.5052 29.5603 44.2425C29.5378 44.2365 29.5232 44.2308 29.5159 44.2191C28.9719 43.8458 28.4578 42.3822 28.0252 41.8343C27.8243 41.5715 27.6976 41.6884 27.6081 41.2746C27.5113 40.8959 27.6601 40.9598 27.7872 40.6449C27.1239 39.4555 28.6442 39.4734 28.3312 38.0445C28.264 37.7821 28.0703 37.4153 27.9063 37.2984C27.5933 37.4323 27.7423 37.5082 27.5783 37.765C27.3248 37.6242 27.0715 37.4847 26.8259 37.3449C26.0583 36.6222 26.4687 37.1468 26.2525 36.6748C25.7907 35.6832 25.3506 36.2372 24.7997 35.7476C24.5535 35.5437 24.5091 35.2225 24.0993 35.2809C23.4812 35.3628 23.8237 35.4555 23.1828 35.164C22.6388 34.9135 22.0723 34.6219 21.6927 34.284C21.6777 33.7589 21.8718 33.7355 21.5365 33.2458C21.3725 32.9954 21.1491 32.7909 21.0147 32.5927C20.7767 32.214 21.1266 32.5577 20.5304 31.8116C20.1358 31.3156 20.5976 31.2694 20.1503 30.9258C19.5623 31.1993 20.4855 31.9747 20.7765 33.2288C20.5234 33.1937 20.352 32.995 20.2547 32.7152C20.1059 32.2543 20.262 32.3717 19.8001 32.179C19.8226 31.3856 19.9792 32.086 19.6513 31.2985C19.5394 31.007 19.6064 30.8785 19.4947 30.5812C19.4051 30.3248 19.5396 30.5573 19.3906 30.4118C19.3313 30.2367 19.4359 30.4001 19.3016 30.2663C19.1676 30.1205 19.2943 30.2487 19.175 30.1611C18.8767 29.9572 18.8101 29.7002 18.7579 29.2924C18.6086 27.9633 19.0563 27.8522 19.5697 26.9018C19.9649 26.219 19.8899 26.3188 19.5769 25.759C19.6519 25.4787 19.7482 25.4733 19.7263 25.0883C19.7038 24.6391 19.6743 24.8435 19.7782 24.4994C19.7632 24.4817 19.7408 24.47 19.7263 24.4647C19.7116 24.4647 19.6892 24.447 19.6743 24.4413C19.6593 24.4353 19.6294 24.4237 19.6146 24.412C19.5328 24.388 19.4584 24.3595 19.3684 24.3301C19.4055 23.6186 19.5172 23.1987 18.6904 23.1174C18.3254 23.0823 18.0942 22.9309 17.9755 22.9369C17.9079 22.9369 17.565 23.1063 17.3047 23.1701C16.8423 23.2927 17.0886 23.2807 16.6638 23.2052C16.4354 23.1617 15.7931 23.2334 15.2383 23.082L15.3162 22.314C15.6316 22.2726 15.9517 22.2531 16.1723 22.0566C15.9562 21.8761 15.7329 22.0041 15.4125 21.8937C15.4719 21.3276 16.3586 21.52 16.7455 21.52C16.7974 21.094 16.5668 21.1063 16.7757 20.9428C16.895 20.8498 19.2116 20.2604 19.7786 20.3715C20.6431 20.5292 21.5068 20.6869 22.3707 20.8381C22.9001 20.8901 23.7417 20.535 24.2859 20.5578C24.6958 20.5817 24.323 20.663 24.8296 20.6986C25.1795 20.722 25.1945 20.6227 25.582 20.7337C25.9397 20.8389 25.7684 20.8676 26.1928 20.8676C26.26 20.6404 26.3267 20.4073 26.4015 20.1735C26.0288 20.2323 25.8054 20.3663 25.4398 20.2845C25.4549 19.9405 25.9017 19.8002 26.1403 19.6785C26.9524 19.2701 27.5113 19.9403 28.3906 20.0047C28.7183 20.028 28.9567 19.8002 29.3361 19.7885C29.2096 20.0279 29.1274 19.9754 28.9487 20.2899C29.1127 20.7214 28.8821 20.1496 29.0758 20.5346C29.1055 20.5813 29.1278 20.5813 29.158 20.704C28.5466 20.8495 28.9268 20.9202 28.0776 20.8552C28.1822 21.0011 27.9885 20.92 28.316 21.0714C28.5915 21.1994 28.9867 21.1293 29.2773 21.1178C29.3742 20.9426 29.4335 20.7912 29.605 20.727C29.6722 20.7036 29.7538 20.6977 29.8653 20.7036C29.8803 20.7906 29.9028 20.8782 29.9251 20.966C29.9251 20.9719 29.9401 21.0302 29.9328 21.0179C29.9401 21.0062 29.9475 21.0536 29.9553 21.0708C30.4246 20.8027 30.0297 20.7964 30.283 20.3125C29.8878 20.2366 29.9405 20.2828 29.6941 20.0381C29.9328 19.7811 30.3945 19.6941 30.7376 19.7173C30.7151 19.9505 30.6032 19.9451 30.6923 20.1433C30.9604 19.9804 31.1473 19.5427 31.579 19.6243C31.6612 19.6822 31.7581 19.7349 31.8471 19.7872C31.6232 19.9917 31.2885 20.0034 30.9979 20.1201C30.8713 21.3851 31.4078 20.324 31.2291 21.1927C31.5493 21.1697 31.8622 20.9422 31.9815 20.709C31.8627 20.5572 31.6915 20.5572 31.5941 20.3765C31.6694 20.1433 31.8297 19.9666 32.0559 19.8614C32.2091 19.79 32.3926 19.7523 32.5999 19.7523C34.9686 19.77 33.8434 19.8746 34.5739 20.2015C34.7374 20.2711 35.028 20.3067 35.1254 20.4463C35.2742 20.6682 35.1326 20.8775 35.3701 21.0528C35.5789 21.204 35.6089 21.0469 35.8846 21.3851C35.8253 21.5774 35.6831 21.7759 35.3931 21.7813C34.9907 21.7876 35.2291 21.5189 34.797 21.5597C34.8048 21.9564 35.2074 22.1082 34.8344 22.3234C34.5068 22.5162 34.7151 22.2539 34.4695 22.3876C34.4622 22.394 34.4392 22.4053 34.432 22.4116C34.4173 22.4227 34.4027 22.4403 34.3949 22.452C34.35 22.4993 34.3127 22.5402 34.2761 22.581C33.68 22.4233 33.7919 22.4934 33.4341 22.1084C33.3002 21.9629 33.2779 21.9273 33.0389 21.9455C32.8901 21.9509 32.6968 22.0145 32.5546 21.8872C32.8458 21.5315 32.9868 21.8755 33.4117 21.6653C33.4861 21.6302 33.9557 21.2749 34.0301 21.1927C33.903 20.9133 34.0145 21.1454 33.8292 20.9654C33.4115 20.5511 33.2924 20.6563 32.7268 20.6563C32.4617 20.9547 32.2629 21.3232 31.9744 21.4846V21.4851C31.8002 21.5826 31.5929 21.605 31.3183 21.4905C31.4449 21.9919 31.7724 21.6069 31.8026 22.2132C31.5864 22.1722 31.4746 22.0674 31.2512 22.1437C30.7741 22.3183 31.1992 22.3008 31.2361 22.3941C31.2361 22.4001 31.4601 22.4229 31.2361 22.5047C30.9899 22.5917 31.199 22.458 30.7222 22.1839C30.7893 22.067 30.8561 21.9451 30.9231 21.8228C30.5363 21.9397 30.052 22.126 29.5974 22.3418C29.0829 22.5923 28.5991 22.878 28.3088 23.141C28.301 23.5785 28.3832 23.2864 28.4281 23.8052C29.1207 23.8466 28.8977 24.05 29.5903 24.2427C29.7247 24.2774 29.8959 24.3127 30.1049 24.3479C30.1049 24.6745 29.807 24.9198 30.0152 25.2575C30.4995 25.5894 30.5145 24.9421 30.6337 24.5285C32.2733 24.1941 31.4829 23.7225 31.9069 22.8417C31.9705 22.7098 32.0611 22.5697 32.1906 22.4183C32.3171 22.4242 32.8305 22.4771 32.943 22.5005C33.3154 22.5641 33.1148 22.6517 33.5169 22.8267C33.5091 23.1415 33.3451 23.5497 33.8221 23.4744C34.1871 23.4108 34.1054 23.1304 34.5526 23.0597C34.7535 23.5206 34.7014 23.7186 34.7907 24.2724C35.8639 24.6808 35.3868 25.0131 35.1781 25.7772C35.3124 25.8409 35.454 25.8999 35.5957 25.9578C35.5885 26.1793 35.5807 26.3947 35.5733 26.6109C35.5508 26.6109 34.4257 26.3715 34.3513 26.3485C34.5225 25.8696 34.8356 25.8648 35.0376 25.3746C34.6352 25.4442 34.6649 25.5668 34.3743 25.654C34.114 25.7299 33.9125 25.6779 33.6369 25.7128C33.5401 26.0273 33.6297 25.4384 33.6594 25.8405C33.6744 25.9923 33.749 25.8468 33.6443 26.0099C33.272 25.8405 33.3987 25.4438 32.706 25.8117C32.8623 25.8817 33.0185 25.9457 33.1825 26.0099C33.1606 26.4585 33.1231 26.1205 33.0263 26.4177C32.7875 27.1814 33.6746 26.7092 33.9052 26.6682C33.8455 27.0707 33.5917 27.0707 33.2345 27.1813C32.8398 27.2981 32.7205 27.4557 32.4077 27.5258C32.4077 27.0475 32.3333 27.4505 32.5494 27.1174C32.2364 27.1462 32.0054 27.2863 31.708 27.4089L31.6783 27.4201C31.2953 27.5724 31.2374 27.5952 31.194 28.0726C30.8663 28.1719 30.4863 28.2828 30.2557 28.5159C30.0245 28.7315 29.7933 28.9471 29.5699 29.1573C29.5475 29.175 29.5328 29.192 29.518 29.2037C29.5998 29.8043 29.518 29.816 29.1452 30.0496C28.8316 30.2478 28.7281 30.2418 28.4375 30.4925C27.5065 31.3091 27.9533 30.93 28.0054 32.3357C27.8117 32.2775 27.6252 32.2131 27.4467 32.1489C27.3049 31.216 27.4987 31.5251 26.7318 31.3093C25.9044 31.0755 26.0165 31.4722 25.6736 31.5425C25.2934 31.6238 25.1071 31.2043 24.5557 31.5537C24.251 31.7581 23.9599 31.8923 23.8861 32.2532C23.7961 32.6907 23.5955 33.0115 23.6248 33.4958C23.6768 34.8074 24.899 34.8827 25.2118 34.2706C25.4202 33.8628 25.3684 33.6414 26.0464 33.7466C26.1136 34.0966 26.0089 34.3532 25.9198 34.6213C25.8601 34.779 25.6959 35.0642 25.7777 35.2802C26.262 35.4724 26.277 35.1113 26.9175 35.4837C26.9624 36.1081 26.627 36.808 27.1185 37.1691C27.4987 37.4435 27.5206 37.1987 27.8562 37.1403C28.2286 37.0766 28.1618 37.3038 28.5045 37.3559C28.6982 37.1227 28.6164 37.2683 28.7429 36.9826C28.9669 36.4872 29.0263 36.7202 29.5551 36.417C29.607 36.3883 29.6519 36.3588 29.7039 36.3235C29.7627 36.4462 29.8304 36.5623 29.8898 36.6792C30.2778 36.2306 30.3223 36.6675 30.7693 36.7907C30.961 36.8417 31.0985 36.8603 31.2038 36.8618C31.5291 36.8662 31.562 36.7121 32.0056 36.8657C32.0581 36.8896 32.1249 36.9071 32.1852 36.9239C32.1924 36.9239 32.2149 36.9356 32.2149 36.9473C32.2227 36.9533 32.2451 36.9707 32.2524 36.977C32.3262 37.0583 32.3342 37.1399 32.3941 37.2275C32.6997 37.5132 33.0055 37.7994 33.3031 38.0788C33.8911 38.3061 33.8911 37.8803 34.5617 38.5152C34.8445 38.7776 34.7179 38.7722 34.8747 39.1101C34.8972 39.1626 34.9413 39.2153 34.9716 39.2798C35.0313 39.437 35.0987 39.5884 35.1658 39.7402C35.4711 40.1309 35.888 39.886 36.3131 40.2881C36.5584 40.5217 36.3728 40.4516 36.9167 40.5451C37.7587 40.679 37.4312 40.6033 38.0717 41.0759C38.3173 41.2505 38.3769 41.1513 38.6075 41.3029C38.9278 41.7404 38.846 42.2124 38.5778 42.5974C37.7511 43.7753 38.0342 43.583 37.9967 44.516C37.967 45.0522 37.8108 46.1601 37.2963 46.2943C35.4269 46.8078 36.5142 47.1635 36.0225 48.0668C35.8807 48.3238 35.7763 48.3876 35.6868 48.5919C35.315 49.4426 35.5753 49.7284 34.4726 49.5365C34.5773 49.717 34.5101 49.5944 34.6148 49.7575C34.9419 50.2534 34.9944 50.6268 34.3236 50.7489C33.7649 50.8541 34.0034 50.7489 33.9512 51.3554C33.7351 51.443 33.6382 51.3554 33.4966 51.4957C33.6904 51.8456 33.5113 51.5545 33.8397 51.7527C33.78 51.9449 33.7351 52.1317 33.6831 52.3182C33.557 52.7728 33.5197 52.3533 33.4748 52.8843C33.6685 52.9713 33.8024 52.9533 33.9737 53.1817C33.9518 53.3565 33.7727 53.8343 33.7212 54.1084C33.9967 54.5108 34.2205 54.942 34.8085 54.9834C34.8007 55.3211 34.8829 55.2862 34.5851 55.3556C34.3316 55.4139 33.7952 55.181 33.5718 55.0645C33.1844 54.86 32.8266 54.5919 32.5663 54.2075C32.4175 53.9918 32.4767 54.0969 32.3201 53.8926C32.0368 53.5369 32.1494 53.3736 32.067 53.1342C32.0221 52.9942 31.7911 52.8428 31.888 52.3876C31.911 52.2596 32.1192 51.6475 31.8661 51.7525C31.6126 51.8517 32.0598 51.8104 31.7095 51.9744C31.6273 51.7525 31.5607 51.4259 31.5158 51.1519C31.4261 50.691 31.3148 50.6739 31.2623 50.3941C31.1508 49.7469 31.4336 49.6768 31.1205 48.5978C30.9151 47.8838 30.9973 46.195 30.781 45.3272C30.7483 45.206 30.7134 45.0869 30.6515 44.9826H30.6481Z" fill="#E85729"/>
</svg>
